<svg width="70" height="70" viewBox="0 0 70 70" fill="none" xmlns="http://www.w3.org/2000/svg">
<path d="M65.0781 6.5625H4.92188C3.90694 6.56362 2.93389 6.9673 2.21622 7.68497C1.49855 8.40264 1.09487 9.37569 1.09375 10.3906V59.6094C1.09487 60.6243 1.49855 61.5974 2.21622 62.315C2.93389 63.0327 3.90694 63.4364 4.92188 63.4375H65.0781C66.0931 63.4364 67.0661 63.0327 67.7838 62.315C68.5014 61.5974 68.9051 60.6243 68.9062 59.6094V10.3906C68.9051 9.37569 68.5014 8.40264 67.7838 7.68497C67.0661 6.9673 66.0931 6.56362 65.0781 6.5625ZM66.7188 59.6094C66.7184 60.0444 66.5454 60.4615 66.2378 60.7691C65.9302 61.0767 65.5131 61.2496 65.0781 61.25H4.92188C4.48687 61.2496 4.06978 61.0767 3.76218 60.7691C3.45458 60.4615 3.28161 60.0444 3.28125 59.6094V15.3125H66.7188V59.6094ZM66.7188 13.125H3.28125V10.3906C3.28161 9.95562 3.45458 9.53853 3.76218 9.23093C4.06978 8.92333 4.48687 8.75036 4.92188 8.75H65.0781C65.5131 8.75036 65.9302 8.92333 66.2378 9.23093C66.5454 9.53853 66.7184 9.95562 66.7188 10.3906V13.125Z" fill="black"/>
<path d="M5.46875 12.0312H6.5625C6.85258 12.0312 7.13078 11.916 7.3359 11.7109C7.54102 11.5058 7.65625 11.2276 7.65625 10.9375C7.65625 10.6474 7.54102 10.3692 7.3359 10.1641C7.13078 9.95898 6.85258 9.84375 6.5625 9.84375H5.46875C5.17867 9.84375 4.90047 9.95898 4.69535 10.1641C4.49023 10.3692 4.375 10.6474 4.375 10.9375C4.375 11.2276 4.49023 11.5058 4.69535 11.7109C4.90047 11.916 5.17867 12.0312 5.46875 12.0312Z" fill="black"/>
<path d="M9.84375 12.0312H10.9375C11.2276 12.0312 11.5058 11.916 11.7109 11.7109C11.916 11.5058 12.0312 11.2276 12.0312 10.9375C12.0312 10.6474 11.916 10.3692 11.7109 10.1641C11.5058 9.95898 11.2276 9.84375 10.9375 9.84375H9.84375C9.55367 9.84375 9.27547 9.95898 9.07035 10.1641C8.86523 10.3692 8.75 10.6474 8.75 10.9375C8.75 11.2276 8.86523 11.5058 9.07035 11.7109C9.27547 11.916 9.55367 12.0312 9.84375 12.0312Z" fill="black"/>
<path d="M14.2188 12.0312H15.3125C15.6026 12.0312 15.8808 11.916 16.0859 11.7109C16.291 11.5058 16.4062 11.2276 16.4062 10.9375C16.4062 10.6474 16.291 10.3692 16.0859 10.1641C15.8808 9.95898 15.6026 9.84375 15.3125 9.84375H14.2188C13.9287 9.84375 13.6505 9.95898 13.4454 10.1641C13.2402 10.3692 13.125 10.6474 13.125 10.9375C13.125 11.2276 13.2402 11.5058 13.4454 11.7109C13.6505 11.916 13.9287 12.0312 14.2188 12.0312Z" fill="black"/>
<path d="M25.1562 18.5938H7.65625C7.36617 18.5938 7.08797 18.709 6.88285 18.9141C6.67773 19.1192 6.5625 19.3974 6.5625 19.6875V37.1875C6.5625 37.4776 6.67773 37.7558 6.88285 37.9609C7.08797 38.166 7.36617 38.2812 7.65625 38.2812H25.1562C25.4463 38.2812 25.7245 38.166 25.9296 37.9609C26.1348 37.7558 26.25 37.4776 26.25 37.1875V19.6875C26.25 19.3974 26.1348 19.1192 25.9296 18.9141C25.7245 18.709 25.4463 18.5938 25.1562 18.5938ZM24.0625 36.0938H8.75V20.7812H24.0625V36.0938Z" fill="black"/>
<path d="M21.6644 33.5111L17.4262 22.5736C17.3468 22.3688 17.2076 22.1925 17.0266 22.0679C16.8457 21.9433 16.6314 21.8761 16.4117 21.875H16.4062C16.1876 21.8751 15.974 21.9406 15.7929 22.0632C15.6119 22.1857 15.4717 22.3597 15.3904 22.5627L11.0154 33.5002C10.9621 33.6336 10.9356 33.7762 10.9373 33.9198C10.9391 34.0635 10.9692 34.2054 11.0258 34.3374C11.0824 34.4695 11.1645 34.589 11.2673 34.6894C11.3702 34.7897 11.4918 34.8688 11.6252 34.9221C11.7586 34.9754 11.9012 35.0019 12.0448 35.0001C12.1885 34.9984 12.3304 34.9683 12.4624 34.9117C12.5944 34.8551 12.714 34.773 12.8143 34.6701C12.9146 34.5673 12.9937 34.4457 13.047 34.3123L14.5222 30.625H18.2L19.6246 34.3014C19.6765 34.4353 19.7542 34.5577 19.8534 34.6616C19.9526 34.7655 20.0713 34.8488 20.2027 34.9068C20.3341 34.9649 20.4756 34.9964 20.6192 34.9997C20.7628 35.0031 20.9057 34.9781 21.0396 34.9262C21.1736 34.8743 21.296 34.7965 21.3999 34.6973C21.5037 34.5981 21.5871 34.4795 21.6451 34.3481C21.7031 34.2167 21.7347 34.0751 21.738 33.9315C21.7413 33.7879 21.7163 33.6451 21.6644 33.5111ZM15.3972 28.4375L16.3898 25.9547L17.3523 28.4375H15.3972Z" fill="black"/>
<path d="M62.3438 38.2812H44.8438C44.5537 38.2812 44.2755 38.3965 44.0704 38.6016C43.8652 38.8067 43.75 39.0849 43.75 39.375V56.875C43.75 57.1651 43.8652 57.4433 44.0704 57.6484C44.2755 57.8535 44.5537 57.9688 44.8438 57.9688H62.3438C62.6338 57.9688 62.912 57.8535 63.1171 57.6484C63.3223 57.4433 63.4375 57.1651 63.4375 56.875V39.375C63.4375 39.0849 63.3223 38.8067 63.1171 38.6016C62.912 38.3965 62.6338 38.2812 62.3438 38.2812ZM61.25 55.7812H45.9375V40.4688H61.25V55.7812Z" fill="black"/>
<path d="M55.5871 45.9539C55.7161 45.598 55.7818 45.2223 55.7812 44.8438C55.7801 43.9739 55.434 43.1399 54.8189 42.5248C54.2038 41.9097 53.3699 41.5637 52.5 41.5625H49.2188C48.9287 41.5625 48.6505 41.6777 48.4454 41.8829C48.2402 42.088 48.125 42.3662 48.125 42.6562V53.5938C48.125 53.8838 48.2402 54.162 48.4454 54.3671C48.6505 54.5723 48.9287 54.6875 49.2188 54.6875H55.2344C56.2493 54.6864 57.2224 54.2827 57.94 53.565C58.6577 52.8474 59.0614 51.8743 59.0625 50.8594V49.7656C59.0611 48.8118 58.7043 47.8928 58.0617 47.1879C57.419 46.4831 56.5367 46.0431 55.5871 45.9539ZM50.3125 43.75H52.5C52.7901 43.75 53.0683 43.8652 53.2734 44.0704C53.4785 44.2755 53.5938 44.5537 53.5938 44.8438C53.5938 45.1338 53.4785 45.412 53.2734 45.6171C53.0683 45.8223 52.7901 45.9375 52.5 45.9375H50.3125V43.75ZM56.875 50.8594C56.8746 51.2944 56.7017 51.7115 56.3941 52.0191C56.0865 52.3267 55.6694 52.4996 55.2344 52.5H50.3125V48.125H55.2344C55.6694 48.1254 56.0865 48.2983 56.3941 48.6059C56.7017 48.9135 56.8746 49.3306 56.875 49.7656V50.8594Z" fill="black"/>
<path d="M28.4375 29.5312H52.5V36.0938C52.5 36.3838 52.6152 36.662 52.8204 36.8671C53.0255 37.0723 53.3037 37.1875 53.5938 37.1875C53.8838 37.1875 54.162 37.0723 54.3671 36.8671C54.5723 36.662 54.6875 36.3838 54.6875 36.0938V28.4375C54.6875 28.1474 54.5723 27.8692 54.3671 27.6641C54.162 27.459 53.8838 27.3438 53.5938 27.3438H28.4375C28.1474 27.3438 27.8692 27.459 27.6641 27.6641C27.459 27.8692 27.3438 28.1474 27.3438 28.4375C27.3438 28.7276 27.459 29.0058 27.6641 29.2109C27.8692 29.416 28.1474 29.5312 28.4375 29.5312Z" fill="black"/>
<path d="M41.5625 47.0312H17.5V40.4688C17.5 40.1787 17.3848 39.9005 17.1796 39.6954C16.9745 39.4902 16.6963 39.375 16.4062 39.375C16.1162 39.375 15.838 39.4902 15.6329 39.6954C15.4277 39.9005 15.3125 40.1787 15.3125 40.4688V48.125C15.3125 48.4151 15.4277 48.6933 15.6329 48.8984C15.838 49.1035 16.1162 49.2188 16.4062 49.2188H41.5625C41.8526 49.2188 42.1308 49.1035 42.3359 48.8984C42.541 48.6933 42.6562 48.4151 42.6562 48.125C42.6562 47.8349 42.541 47.5567 42.3359 47.3516C42.1308 47.1465 41.8526 47.0312 41.5625 47.0312Z" fill="black"/>
</svg>
